<svg width="33" height="32" viewBox="0 0 33 32" fill="none" xmlns="http://www.w3.org/2000/svg">
<g id="child_friendly">
<path id="Vector" d="M18.3334 4.06025V13.2869H29.0001C29.0001 7.91358 25.0267 3.46025 19.8534 2.72692C19.0534 2.60692 18.3334 3.24692 18.3334 4.06025ZM26.7601 21.1403C28.1601 19.3403 29.0001 17.0736 29.0001 14.6202H9.58675L8.68008 12.7136C8.46675 12.2469 7.98675 11.9536 7.48008 11.9536H5.00008C4.26675 11.9536 3.66675 12.5536 3.66675 13.2869C3.66675 14.0202 4.26675 14.6202 5.00008 14.6202H6.62675C6.62675 14.6202 9.14675 20.0469 9.45341 20.5136C7.68008 21.4603 6.60008 23.5403 7.13341 25.7669C7.53341 27.4469 8.92008 28.7936 10.6001 29.1669C13.4001 29.7803 15.9067 27.8869 16.2667 25.2869H19.0401C19.4001 27.8736 21.8934 29.7669 24.6667 29.1803C26.3601 28.8202 27.7467 27.4869 28.1734 25.8069C28.6401 23.9536 27.9867 22.2336 26.7601 21.1403ZM11.6667 26.6203C10.5601 26.6203 9.66675 25.7269 9.66675 24.6203C9.66675 23.5136 10.5601 22.6203 11.6667 22.6203C12.7734 22.6203 13.6667 23.5136 13.6667 24.6203C13.6667 25.7269 12.7734 26.6203 11.6667 26.6203ZM23.6667 26.6203C22.5601 26.6203 21.6667 25.7269 21.6667 24.6203C21.6667 23.5136 22.5601 22.6203 23.6667 22.6203C24.7734 22.6203 25.6667 23.5136 25.6667 24.6203C25.6667 25.7269 24.7734 26.6203 23.6667 26.6203Z" fill="url(#paint0_linear_49_613)"/>
</g>
<defs>
<linearGradient id="paint0_linear_49_613" x1="16.3334" y1="2.7124" x2="34.8334" y2="37.4999" gradientUnits="userSpaceOnUse">
<stop stop-color="#F87171"/>
<stop offset="1" stop-color="#FAA4A4"/>
</linearGradient>
</defs>
</svg>
