<svg width="33" height="32" viewBox="0 0 33 32" fill="none" xmlns="http://www.w3.org/2000/svg">
<g id="health_and_safety">
<path id="Vector" d="M14.3334 17.2442H13.0001C11.8934 17.2442 11.0001 16.3508 11.0001 15.2442C11.0001 14.1375 11.8934 13.2442 13.0001 13.2442H14.3334V11.9108C14.3334 10.8042 15.2267 9.91083 16.3334 9.91083C17.4401 9.91083 18.3334 10.8042 18.3334 11.9108V13.2442H19.6667C20.7734 13.2442 21.6667 14.1375 21.6667 15.2442C21.6667 16.3508 20.7734 17.2442 19.6667 17.2442H18.3334V18.5775C18.3334 19.6842 17.4401 20.5775 16.3334 20.5775C15.2267 20.5775 14.3334 19.6842 14.3334 18.5775V17.2442ZM15.4001 2.92417L7.40008 5.92417C6.36008 6.32417 5.66675 7.31083 5.66675 8.43083V14.6975C5.66675 21.4308 10.2134 27.7108 16.3334 29.2442C22.4534 27.7108 27.0001 21.4308 27.0001 14.6975V8.43083C27.0001 7.32417 26.3067 6.32417 25.2667 5.9375L17.2667 2.9375C16.6667 2.6975 16.0001 2.6975 15.4001 2.92417Z" fill="url(#paint0_linear_49_587)"/>
</g>
<defs>
<linearGradient id="paint0_linear_49_587" x1="11.0834" y1="8.49998" x2="24.5834" y2="39.25" gradientUnits="userSpaceOnUse">
<stop stop-color="#60A5FA"/>
<stop offset="1" stop-color="#A9CFFF"/>
</linearGradient>
</defs>
</svg>
