<svg width="33" height="32" viewBox="0 0 33 32" fill="none" xmlns="http://www.w3.org/2000/svg">
<g id="lunch_dining">
<g id="Vector">
<path d="M4.82667 19.04C5.88 18.6533 6.38667 18 7.48 18C9.06667 18 9.37333 19.3333 11.92 19.3333C14.52 19.3333 14.7067 18 16.36 18C17.9467 18 18.2533 19.3333 20.8 19.3333C23.4 19.3333 23.5867 18 25.24 18C26.32 18 26.8 18.6133 27.8133 19.0133C28.7067 19.36 29.6667 18.68 29.6667 17.7333C29.6667 17.16 29.2933 16.6533 28.7467 16.4533C27.4533 15.9867 27.12 15.3467 25.2133 15.3467C22.6133 15.3467 22.4267 16.68 20.7733 16.68C19.1867 16.68 18.88 15.3467 16.3333 15.3467C13.7333 15.3467 13.5467 16.68 11.8933 16.68C10.3067 16.68 10 15.3467 7.45333 15.3467C5.38667 15.3467 4.84 16.1867 3.88 16.5333C3.36 16.72 3.01333 17.2267 3.01333 17.7867C3.01333 18.7067 3.94667 19.36 4.82667 19.04Z" fill="url(#paint0_linear_49_29)"/>
<path d="M3 25.3333C3 26.8 4.2 28 5.66667 28H27C28.4667 28 29.6667 26.8 29.6667 25.3333V24C29.6667 22.5333 28.4667 21.3333 27 21.3333H5.66667C4.2 21.3333 3 22.5333 3 24V25.3333Z" fill="url(#paint1_linear_49_29)"/>
<path d="M29.6667 12C29.6933 6.66667 23.96 4 16.3333 4C8.72 4 3 6.66667 3 12C3 12.7333 3.6 13.3333 4.33333 13.3333H28.3333C29.0667 13.3333 29.6667 12.7333 29.6667 12Z" fill="url(#paint2_linear_49_29)"/>
</g>
</g>
<defs>
<linearGradient id="paint0_linear_49_29" x1="2.8335" y1="7" x2="16.3334" y2="28" gradientUnits="userSpaceOnUse">
<stop stop-color="#F59E0B"/>
<stop offset="1" stop-color="#FFD388"/>
</linearGradient>
<linearGradient id="paint1_linear_49_29" x1="2.8335" y1="7" x2="16.3334" y2="28" gradientUnits="userSpaceOnUse">
<stop stop-color="#F59E0B"/>
<stop offset="1" stop-color="#FFD388"/>
</linearGradient>
<linearGradient id="paint2_linear_49_29" x1="2.8335" y1="7" x2="16.3334" y2="28" gradientUnits="userSpaceOnUse">
<stop stop-color="#F59E0B"/>
<stop offset="1" stop-color="#FFD388"/>
</linearGradient>
</defs>
</svg>
