<svg width="33" height="32" viewBox="0 0 33 32" fill="none" xmlns="http://www.w3.org/2000/svg">
<g id="medical_information">
<path id="Vector" d="M27.3334 9.33329H20.6667V5.33329C20.6667 3.86663 19.4667 2.66663 18 2.66663H15.3334C13.8667 2.66663 12.6667 3.86663 12.6667 5.33329V9.33329H6.00004C4.53337 9.33329 3.33337 10.5333 3.33337 12V26.6666C3.33337 28.1333 4.53337 29.3333 6.00004 29.3333H27.3334C28.8 29.3333 30 28.1333 30 26.6666V12C30 10.5333 28.8 9.33329 27.3334 9.33329ZM15.3334 5.33329H18V12H15.3334V5.33329ZM10 21.3333H8.66671C7.93337 21.3333 7.33337 20.7333 7.33337 20C7.33337 19.2666 7.93337 18.6666 8.66671 18.6666H10V17.3333C10 16.6 10.6 16 11.3334 16C12.0667 16 12.6667 16.6 12.6667 17.3333V18.6666H14C14.7334 18.6666 15.3334 19.2666 15.3334 20C15.3334 20.7333 14.7334 21.3333 14 21.3333H12.6667V22.6666C12.6667 23.4 12.0667 24 11.3334 24C10.6 24 10 23.4 10 22.6666V21.3333ZM19 19.3333C18.4534 19.3333 18 18.88 18 18.3333C18 17.7866 18.4534 17.3333 19 17.3333H25C25.5467 17.3333 26 17.7866 26 18.3333C26 18.88 25.5467 19.3333 25 19.3333H19ZM19 23.3333C18.4534 23.3333 18 22.88 18 22.3333C18 21.7866 18.4534 21.3333 19 21.3333H22.3334C22.88 21.3333 23.3334 21.7866 23.3334 22.3333C23.3334 22.88 22.88 23.3333 22.3334 23.3333H19Z" fill="url(#paint0_linear_49_44)"/>
</g>
<defs>
<linearGradient id="paint0_linear_49_44" x1="16.6667" y1="2.66663" x2="32.4167" y2="34.25" gradientUnits="userSpaceOnUse">
<stop stop-color="#60A5FA"/>
<stop offset="1" stop-color="#99C7FF"/>
</linearGradient>
</defs>
</svg>
