<svg width="32" height="32" viewBox="0 0 32 32" fill="none" xmlns="http://www.w3.org/2000/svg">
<g id="people">
<path id="Vector" d="M21.3333 14.6666C23.5466 14.6666 25.32 12.88 25.32 10.6666C25.32 8.45329 23.5466 6.66663 21.3333 6.66663C19.12 6.66663 17.3333 8.45329 17.3333 10.6666C17.3333 12.88 19.12 14.6666 21.3333 14.6666ZM10.6666 14.6666C12.88 14.6666 14.6533 12.88 14.6533 10.6666C14.6533 8.45329 12.88 6.66663 10.6666 6.66663C8.45331 6.66663 6.66665 8.45329 6.66665 10.6666C6.66665 12.88 8.45331 14.6666 10.6666 14.6666ZM10.6666 17.3333C7.55998 17.3333 1.33331 18.8933 1.33331 22V24C1.33331 24.7333 1.93331 25.3333 2.66665 25.3333H18.6666C19.4 25.3333 20 24.7333 20 24V22C20 18.8933 13.7733 17.3333 10.6666 17.3333ZM21.3333 17.3333C20.9466 17.3333 20.5066 17.36 20.04 17.4C20.0666 17.4133 20.08 17.44 20.0933 17.4533C21.6133 18.56 22.6666 20.04 22.6666 22V24C22.6666 24.4666 22.5733 24.92 22.4266 25.3333H29.3333C30.0666 25.3333 30.6666 24.7333 30.6666 24V22C30.6666 18.8933 24.44 17.3333 21.3333 17.3333Z" fill="url(#paint0_radial_49_55)"/>
</g>
<defs>
<radialGradient id="paint0_radial_49_55" cx="0" cy="0" r="1" gradientUnits="userSpaceOnUse" gradientTransform="translate(2.75 -4.91467e-05) rotate(47.035) scale(34.847)">
<stop stop-color="#F59E0B"/>
<stop offset="1" stop-color="#FFD794"/>
</radialGradient>
</defs>
</svg>
