<svg width="32" height="32" viewBox="0 0 32 32" fill="none" xmlns="http://www.w3.org/2000/svg">
<g id="pets">
<g id="Vector">
<path d="M6.00002 15.3304C7.84097 15.3304 9.33335 13.8381 9.33335 11.9971C9.33335 10.1562 7.84097 8.66378 6.00002 8.66378C4.15907 8.66378 2.66669 10.1562 2.66669 11.9971C2.66669 13.8381 4.15907 15.3304 6.00002 15.3304Z" fill="url(#paint0_linear_49_137)"/>
<path d="M12 9.99711C13.841 9.99711 15.3334 8.50473 15.3334 6.66378C15.3334 4.82283 13.841 3.33044 12 3.33044C10.1591 3.33044 8.66669 4.82283 8.66669 6.66378C8.66669 8.50473 10.1591 9.99711 12 9.99711Z" fill="url(#paint1_linear_49_137)"/>
<path d="M20 9.99711C21.841 9.99711 23.3334 8.50473 23.3334 6.66378C23.3334 4.82283 21.841 3.33044 20 3.33044C18.1591 3.33044 16.6667 4.82283 16.6667 6.66378C16.6667 8.50473 18.1591 9.99711 20 9.99711Z" fill="url(#paint2_linear_49_137)"/>
<path d="M26 15.3304C27.841 15.3304 29.3334 13.8381 29.3334 11.9971C29.3334 10.1562 27.841 8.66378 26 8.66378C24.1591 8.66378 22.6667 10.1562 22.6667 11.9971C22.6667 13.8381 24.1591 15.3304 26 15.3304Z" fill="url(#paint3_linear_49_137)"/>
<path d="M23.12 19.1438C21.96 17.7838 20.9867 16.6238 19.8134 15.2638C19.2 14.5438 18.4134 13.8238 17.48 13.5038C17.3334 13.4504 17.1867 13.4104 17.04 13.3838C16.7067 13.3304 16.3467 13.3304 16 13.3304C15.6534 13.3304 15.2934 13.3304 14.9467 13.3971C14.8 13.4238 14.6534 13.4638 14.5067 13.5171C13.5734 13.8371 12.8 14.5571 12.1734 15.2771C11.0134 16.6371 10.04 17.7971 8.86669 19.1571C7.12002 20.9038 4.97335 22.8371 5.37335 25.5438C5.76002 26.9038 6.73335 28.2504 8.48002 28.6371C9.45335 28.8371 12.56 28.0504 15.8667 28.0504H16.1067C19.4134 28.0504 22.52 28.8238 23.4934 28.6371C25.24 28.2504 26.2134 26.8904 26.6 25.5438C27.0134 22.8238 24.8667 20.8904 23.12 19.1438Z" fill="url(#paint4_linear_49_137)"/>
</g>
</g>
<defs>
<linearGradient id="paint0_linear_49_137" x1="-2" y1="9.00006" x2="31.75" y2="33.2501" gradientUnits="userSpaceOnUse">
<stop stop-color="#EC4899"/>
<stop offset="1" stop-color="#FFB0D7"/>
</linearGradient>
<linearGradient id="paint1_linear_49_137" x1="-2" y1="9.00006" x2="31.75" y2="33.2501" gradientUnits="userSpaceOnUse">
<stop stop-color="#EC4899"/>
<stop offset="1" stop-color="#FFB0D7"/>
</linearGradient>
<linearGradient id="paint2_linear_49_137" x1="-2" y1="9.00006" x2="31.75" y2="33.2501" gradientUnits="userSpaceOnUse">
<stop stop-color="#EC4899"/>
<stop offset="1" stop-color="#FFB0D7"/>
</linearGradient>
<linearGradient id="paint3_linear_49_137" x1="-2" y1="9.00006" x2="31.75" y2="33.2501" gradientUnits="userSpaceOnUse">
<stop stop-color="#EC4899"/>
<stop offset="1" stop-color="#FFB0D7"/>
</linearGradient>
<linearGradient id="paint4_linear_49_137" x1="-2" y1="9.00006" x2="31.75" y2="33.2501" gradientUnits="userSpaceOnUse">
<stop stop-color="#EC4899"/>
<stop offset="1" stop-color="#FFB0D7"/>
</linearGradient>
</defs>
</svg>
