<svg width="32" height="32" viewBox="0 0 32 32" fill="none" xmlns="http://www.w3.org/2000/svg">
<g id="school">
<path id="Vector" d="M5.93831 17.5683V21.315C5.93831 22.2883 6.47165 23.195 7.32498 23.6617L13.9916 27.3017C14.7916 27.7417 15.7516 27.7417 16.5516 27.3017L23.2183 23.6617C24.0716 23.195 24.605 22.2883 24.605 21.315V17.5683L16.5516 21.9683C15.7516 22.4083 14.7916 22.4083 13.9916 21.9683L5.93831 17.5683ZM13.9916 4.68835L2.75165 10.8217C1.83165 11.3283 1.83165 12.6617 2.75165 13.1683L13.9916 19.3017C14.7916 19.7417 15.7516 19.7417 16.5516 19.3017L27.2716 13.4483V21.3283C27.2716 22.0617 27.8716 22.6617 28.605 22.6617C29.3383 22.6617 29.9383 22.0617 29.9383 21.3283V12.7817C29.9383 12.2883 29.6716 11.8483 29.245 11.6083L16.5516 4.68835C15.7516 4.26168 14.7916 4.26168 13.9916 4.68835Z" fill="url(#paint0_linear_49_168)"/>
</g>
<defs>
<linearGradient id="paint0_linear_49_168" x1="4.75" y1="1.4659e-05" x2="32.5" y2="38.25" gradientUnits="userSpaceOnUse">
<stop stop-color="#F87171"/>
<stop offset="1" stop-color="#FFBDBD"/>
</linearGradient>
</defs>
</svg>
