<svg width="33" height="32" viewBox="0 0 33 32" fill="none" xmlns="http://www.w3.org/2000/svg">
<g id="spa">
<path id="Vector" d="M21.3068 12.5033C21.0934 9.27666 19.9334 6.11666 17.7868 3.48999C17.2401 2.82332 16.2401 2.82332 15.6934 3.48999C13.4934 6.12999 12.2668 9.28999 12.0001 12.5033C13.7068 13.41 15.2801 14.5833 16.6534 16.01C18.0268 14.5967 19.6001 13.4233 21.3068 12.5033ZM12.6401 16.0367C12.4534 15.9033 12.2401 15.7833 12.0401 15.65C12.2401 15.7967 12.4534 15.9033 12.6401 16.0367ZM16.6534 20.2633C14.0534 16.3033 9.80011 13.5567 4.88011 13.0767C4.02678 12.9967 3.32011 13.7033 3.40011 14.5567C4.00011 20.9567 8.26678 26.2633 14.0401 28.33C14.8801 28.6367 15.7601 28.8633 16.6668 29.01C17.5734 28.85 18.4401 28.6233 19.2934 28.33C25.0668 26.2633 29.3334 20.97 29.9334 14.5567C30.0134 13.7033 29.2934 12.9967 28.4534 13.0767C23.5068 13.5567 19.2534 16.3033 16.6534 20.2633Z" fill="url(#paint0_radial_49_88)"/>
</g>
<defs>
<radialGradient id="paint0_radial_49_88" cx="0" cy="0" r="1" gradientUnits="userSpaceOnUse" gradientTransform="translate(16.6667 -5.00002) rotate(90) scale(27.25 27.8005)">
<stop stop-color="#82FFD8"/>
<stop offset="1" stop-color="#059669"/>
</radialGradient>
</defs>
</svg>
