<svg width="49" height="48" viewBox="0 0 49 48" fill="none" xmlns="http://www.w3.org/2000/svg">
<g id="workspaces">
<path id="Vector" d="M12.3333 26C7.93325 26 4.33325 29.6 4.33325 34C4.33325 38.4 7.93325 42 12.3333 42C16.7333 42 20.3333 38.4 20.3333 34C20.3333 29.6 16.7333 26 12.3333 26ZM24.3333 6C19.9333 6 16.3333 9.6 16.3333 14C16.3333 18.4 19.9333 22 24.3333 22C28.7333 22 32.3333 18.4 32.3333 14C32.3333 9.6 28.7333 6 24.3333 6ZM36.3333 26C31.9333 26 28.3333 29.6 28.3333 34C28.3333 38.4 31.9333 42 36.3333 42C40.7333 42 44.3333 38.4 44.3333 34C44.3333 29.6 40.7333 26 36.3333 26Z" fill="#F59E0B"/>
</g>
</svg>
