<svg width="49" height="48" viewBox="0 0 49 48" fill="none" xmlns="http://www.w3.org/2000/svg">
<g id="workspace_premium">
<path id="Vector" d="M22.5066 24.8861L24.6666 23.2461L26.8066 24.8661C27.5866 25.4461 28.6466 24.7061 28.3666 23.7661L27.5266 21.0461L29.9266 19.1461C30.6666 18.5861 30.2466 17.3861 29.2866 17.3861H26.4866L25.6266 14.7061C25.3266 13.7861 24.0266 13.7861 23.7266 14.7061L22.8466 17.3861H20.0266C19.0866 17.3861 18.6666 18.5861 19.4066 19.1661L21.7866 21.0661L20.9466 23.7861C20.6666 24.7261 21.7266 25.4661 22.5066 24.8861ZM12.6666 42.6061C12.6666 43.9661 14.0066 44.9261 15.3066 44.5061L24.6666 41.3861L34.0266 44.5061C35.3266 44.9461 36.6666 43.9861 36.6666 42.6061V29.9461C39.1466 27.1261 40.6666 23.4461 40.6666 19.3861C40.6666 10.5461 33.5066 3.38608 24.6666 3.38608C15.8266 3.38608 8.66663 10.5461 8.66663 19.3861C8.66663 23.4461 10.1866 27.1261 12.6666 29.9461V42.6061ZM24.6666 7.38608C31.2866 7.38608 36.6666 12.7661 36.6666 19.3861C36.6666 26.0061 31.2866 31.3861 24.6666 31.3861C18.0466 31.3861 12.6666 26.0061 12.6666 19.3861C12.6666 12.7661 18.0466 7.38608 24.6666 7.38608Z" fill="#F59E0B"/>
</g>
</svg>
